<svg width="292" height="94" viewBox="0 0 292 94" fill="none" xmlns="http://www.w3.org/2000/svg">
    <g clip-path="url(#clip0_1_4)">
        <rect width="292" height="94" fill="#B64326"/>
        <path fill-rule="evenodd" clip-rule="evenodd" d="M37.1839 11C36.6242 11.0023 36.0883 11.2325 35.694 11.6401C35.2997 12.0476 35.0795 12.5991 35.0816 13.1732V15.025H23.1024C22.5455 15.0273 22.012 15.2552 21.6182 15.6591C21.2244 16.063 21.0022 16.6101 21 17.1813V82.4437C21.0022 83.0149 21.2244 83.562 21.6182 83.9659C22.012 84.3698 22.5455 84.5977 23.1024 84.6H72.5075C73.0644 84.5977 73.5978 84.3698 73.9916 83.9659C74.3854 83.562 74.6076 83.0149 74.6098 82.4437V17.1813C74.6076 16.6101 74.3854 16.063 73.9916 15.6591C73.5978 15.2552 73.0644 15.0273 72.5075 15.025H60.5241V13.1732C60.5262 12.5991 60.306 12.0476 59.9117 11.6401C59.5174 11.2325 58.9815 11.0023 58.4217 11H37.1839ZM39.3028 15.3294H56.3029V19.0373H39.3028V15.3294ZM25.2212 19.3544H35.0816V21.1936C35.0795 21.7677 35.2997 22.3191 35.694 22.7267C36.0883 23.1342 36.6242 23.3644 37.1839 23.3667H58.4217C58.9815 23.3644 59.5174 23.1342 59.9117 22.7267C60.306 22.3191 60.5262 21.7677 60.5241 21.1936V19.3544H70.3886V80.2706H25.2212V19.3544ZM43.6394 29.4972C43.0815 29.4663 42.5344 29.664 42.1183 30.0469L35.6546 36.0379L33.2925 32.8331C33.1255 32.6053 32.9164 32.4137 32.6771 32.2691C32.4378 32.1245 32.1731 32.0299 31.8981 31.9906C31.6232 31.9513 31.3433 31.9682 31.0747 32.0402C30.8061 32.1122 30.554 32.238 30.3328 32.4103C29.8882 32.7563 29.5953 33.2691 29.518 33.8364C29.4408 34.4038 29.5855 34.9794 29.9206 35.4375L33.6759 40.5533C33.8521 40.7923 34.0746 40.9912 34.3295 41.1374C34.5844 41.2836 34.8661 41.3738 35.1567 41.4024C35.4473 41.4311 35.7405 41.3974 36.0178 41.3036C36.2951 41.2099 36.5504 41.058 36.7676 40.8577L44.9461 33.2685C45.3601 32.8831 45.6082 32.3448 45.6361 31.7717C45.6639 31.1986 45.4691 30.6375 45.0945 30.2117C44.7208 29.785 44.1975 29.528 43.6394 29.4972ZM50.0206 33.2855C49.4612 33.2851 48.9246 33.513 48.5287 33.9189C48.1329 34.3249 47.9104 34.8757 47.91 35.4502C47.9096 35.735 47.964 36.0171 48.0699 36.2803C48.1758 36.5435 48.3312 36.7827 48.5273 36.9841C48.7233 37.1856 48.9561 37.3454 49.2124 37.4543C49.4686 37.5633 49.7433 37.6193 50.0206 37.6191H64.9143C65.1916 37.6193 65.4663 37.5633 65.7225 37.4543C65.9788 37.3454 66.2116 37.1856 66.4076 36.9841C66.6036 36.7827 66.7591 36.5435 66.865 36.2803C66.9709 36.0171 67.0252 35.735 67.0249 35.4502C67.0245 34.8757 66.802 34.3249 66.4061 33.9189C66.0103 33.513 65.4737 33.2851 64.9143 33.2855H50.0206ZM43.6394 46.0834C43.0815 46.0525 42.5344 46.2502 42.1183 46.6331L35.6546 52.6241L33.2925 49.4193C33.1255 49.1915 32.9164 48.9999 32.6771 48.8553C32.4378 48.7107 32.1731 48.6161 31.8981 48.5768C31.6232 48.5375 31.3433 48.5544 31.0747 48.6264C30.8061 48.6984 30.554 48.8242 30.3328 48.9965C29.8882 49.3425 29.5953 49.8553 29.518 50.4227C29.4408 50.99 29.5855 51.5657 29.9206 52.0237L33.6759 57.1268C33.8524 57.3655 34.0752 57.5641 34.3302 57.7099C34.5853 57.8557 34.867 57.9455 35.1576 57.9737C35.4482 58.0019 35.7413 57.9679 36.0185 57.8738C36.2956 57.7797 36.5507 57.6275 36.7676 57.427L44.9461 49.8547C45.3601 49.4693 45.6082 48.931 45.6361 48.3579C45.6639 47.7848 45.4691 47.2237 45.0945 46.7979C44.7208 46.3712 44.1975 46.1142 43.6394 46.0834ZM50.0206 49.8717C49.7436 49.8715 49.4693 49.9273 49.2133 50.036C48.9573 50.1447 48.7247 50.3041 48.5287 50.5051C48.3328 50.7062 48.1772 50.9448 48.0711 51.2076C47.9649 51.4703 47.9102 51.7519 47.91 52.0364C47.9096 52.3212 47.964 52.6033 48.0699 52.8665C48.1758 53.1297 48.3312 53.3689 48.5273 53.5704C48.7233 53.7718 48.9561 53.9316 49.2124 54.0405C49.4686 54.1495 49.7433 54.2055 50.0206 54.2053H64.9143C65.1916 54.2055 65.4663 54.1495 65.7225 54.0405C65.9788 53.9316 66.2116 53.7718 66.4076 53.5704C66.6036 53.3689 66.7591 53.1297 66.865 52.8665C66.9709 52.6033 67.0252 52.3212 67.0249 52.0364C67.0247 51.7519 66.97 51.4703 66.8638 51.2076C66.7576 50.9448 66.6021 50.7062 66.4061 50.5051C66.2102 50.3041 65.9775 50.1447 65.7216 50.036C65.4656 49.9273 65.1913 49.8715 64.9143 49.8717H50.0206ZM43.6353 62.6696C43.0782 62.641 42.5327 62.8402 42.1183 63.2235L35.6546 69.2145L33.2925 65.9928C33.1252 65.7654 32.9159 65.5741 32.6764 65.4299C32.437 65.2857 32.1722 65.1915 31.8973 65.1526C31.6223 65.1137 31.3426 65.131 31.0741 65.2033C30.8056 65.2757 30.5537 65.4017 30.3328 65.5742C30.1109 65.7457 29.9242 65.9605 29.7833 66.2062C29.6424 66.4519 29.5502 66.7238 29.5119 67.0063C29.4736 67.2887 29.49 67.5761 29.5601 67.852C29.6302 68.128 29.7527 68.3869 29.9206 68.6141L33.6759 73.7173C33.8524 73.956 34.0752 74.1546 34.3302 74.3003C34.5853 74.4461 34.867 74.5359 35.1576 74.5642C35.4482 74.5924 35.7413 74.5584 36.0185 74.4642C36.2956 74.3701 36.5507 74.218 36.7676 74.0174L44.9461 66.4325C45.3601 66.0471 45.6082 65.5087 45.6361 64.9356C45.6639 64.3625 45.4691 63.8015 45.0945 63.3757C44.7184 62.9511 44.1936 62.6971 43.6353 62.6696ZM50.0206 66.4452C49.7433 66.445 49.4686 66.501 49.2124 66.61C48.9561 66.7189 48.7233 66.8787 48.5273 67.0802C48.3312 67.2816 48.1758 67.5208 48.0699 67.784C47.964 68.0472 47.9096 68.3293 47.91 68.6141C47.9096 68.8989 47.964 69.181 48.0699 69.4442C48.1758 69.7075 48.3312 69.9466 48.5273 70.1481C48.7233 70.3496 48.9561 70.5093 49.2124 70.6183C49.4686 70.7273 49.7433 70.7832 50.0206 70.7831H64.9143C65.1916 70.7832 65.4663 70.7272 65.7225 70.6183C65.9788 70.5093 66.2116 70.3496 66.4076 70.1481C66.6036 69.9466 66.7591 69.7075 66.865 69.4442C66.9709 69.181 67.0252 68.8989 67.0249 68.6141C67.0252 68.3293 66.9709 68.0472 66.865 67.784C66.7591 67.5208 66.6036 67.2816 66.4076 67.0802C66.2116 66.8787 65.9788 66.7189 65.7225 66.61C65.4663 66.501 65.1916 66.445 64.9143 66.4452H50.0206Z" fill="white"/>
        <path d="M87.8629 70V26.3636H97.0888V44.3679H115.817V26.3636H125.022V70H115.817V51.9744H97.0888V70H87.8629ZM147.245 70.6392C143.935 70.6392 141.073 69.9361 138.658 68.5298C136.258 67.1094 134.404 65.1349 133.097 62.6065C131.79 60.0639 131.137 57.1165 131.137 53.7642C131.137 50.3835 131.79 47.429 133.097 44.9006C134.404 42.358 136.258 40.3835 138.658 38.9773C141.073 37.5568 143.935 36.8466 147.245 36.8466C150.555 36.8466 153.41 37.5568 155.81 38.9773C158.225 40.3835 160.086 42.358 161.393 44.9006C162.7 47.429 163.353 50.3835 163.353 53.7642C163.353 57.1165 162.7 60.0639 161.393 62.6065C160.086 65.1349 158.225 67.1094 155.81 68.5298C153.41 69.9361 150.555 70.6392 147.245 70.6392ZM147.288 63.608C148.793 63.608 150.05 63.1818 151.059 62.3295C152.067 61.4631 152.827 60.2841 153.339 58.7926C153.864 57.3011 154.127 55.6037 154.127 53.7003C154.127 51.7969 153.864 50.0994 153.339 48.608C152.827 47.1165 152.067 45.9375 151.059 45.071C150.05 44.2045 148.793 43.7713 147.288 43.7713C145.768 43.7713 144.489 44.2045 143.452 45.071C142.43 45.9375 141.656 47.1165 141.13 48.608C140.619 50.0994 140.363 51.7969 140.363 53.7003C140.363 55.6037 140.619 57.3011 141.13 58.7926C141.656 60.2841 142.43 61.4631 143.452 62.3295C144.489 63.1818 145.768 63.608 147.288 63.608ZM174.891 70L165.984 37.2727H175.168L180.239 59.2614H180.537L185.821 37.2727H194.834L200.203 59.1335H200.48L205.466 37.2727H214.628L205.743 70H196.134L190.509 49.4176H190.104L184.479 70H174.891ZM214.931 33.9702V26.3636H250.77V33.9702H237.41V70H228.291V33.9702H214.931ZM266.542 70.6392C263.232 70.6392 260.37 69.9361 257.955 68.5298C255.555 67.1094 253.701 65.1349 252.394 62.6065C251.087 60.0639 250.434 57.1165 250.434 53.7642C250.434 50.3835 251.087 47.429 252.394 44.9006C253.701 42.358 255.555 40.3835 257.955 38.9773C260.37 37.5568 263.232 36.8466 266.542 36.8466C269.852 36.8466 272.707 37.5568 275.107 38.9773C277.522 40.3835 279.383 42.358 280.69 44.9006C281.996 47.429 282.65 50.3835 282.65 53.7642C282.65 57.1165 281.996 60.0639 280.69 62.6065C279.383 65.1349 277.522 67.1094 275.107 68.5298C272.707 69.9361 269.852 70.6392 266.542 70.6392ZM266.585 63.608C268.09 63.608 269.347 63.1818 270.356 62.3295C271.364 61.4631 272.124 60.2841 272.636 58.7926C273.161 57.3011 273.424 55.6037 273.424 53.7003C273.424 51.7969 273.161 50.0994 272.636 48.608C272.124 47.1165 271.364 45.9375 270.356 45.071C269.347 44.2045 268.09 43.7713 266.585 43.7713C265.065 43.7713 263.786 44.2045 262.749 45.071C261.727 45.9375 260.952 47.1165 260.427 48.608C259.915 50.0994 259.66 51.7969 259.66 53.7003C259.66 55.6037 259.915 57.3011 260.427 58.7926C260.952 60.2841 261.727 61.4631 262.749 62.3295C263.786 63.1818 265.065 63.608 266.585 63.608Z" fill="white"/>
    </g>
    <defs>
        <clipPath id="clip0_1_4">
            <rect width="292" height="94" fill="white"/>
        </clipPath>
    </defs>
</svg>
