<svg width="95" height="94" viewBox="0 0 95 94" fill="none" xmlns="http://www.w3.org/2000/svg">
<g clip-path="url(#clip0_82_2)">
<path fill-rule="evenodd" clip-rule="evenodd" d="M37.1839 10C36.6242 10.0023 36.0883 10.2325 35.694 10.6401C35.2997 11.0476 35.0795 11.5991 35.0816 12.1732V14.025H23.1024C22.5455 14.0273 22.012 14.2552 21.6182 14.6591C21.2244 15.063 21.0022 15.6101 21 16.1813V81.4437C21.0022 82.0149 21.2244 82.562 21.6182 82.9659C22.012 83.3698 22.5455 83.5977 23.1024 83.6H72.5075C73.0644 83.5977 73.5978 83.3698 73.9916 82.9659C74.3854 82.562 74.6076 82.0149 74.6098 81.4437V16.1813C74.6076 15.6101 74.3854 15.063 73.9916 14.6591C73.5978 14.2552 73.0644 14.0273 72.5075 14.025H60.5241V12.1732C60.5262 11.5991 60.306 11.0476 59.9117 10.6401C59.5174 10.2325 58.9815 10.0023 58.4217 10H37.1839ZM39.3028 14.3294H56.3029V18.0373H39.3028V14.3294ZM25.2212 18.3544H35.0816V20.1936C35.0795 20.7677 35.2997 21.3191 35.694 21.7267C36.0883 22.1342 36.6242 22.3644 37.1839 22.3667H58.4217C58.9815 22.3644 59.5174 22.1342 59.9117 21.7267C60.306 21.3191 60.5262 20.7677 60.5241 20.1936V18.3544H70.3886V79.2706H25.2212V18.3544ZM43.6394 28.4972C43.0815 28.4663 42.5344 28.664 42.1183 29.0469L35.6546 35.0379L33.2925 31.8331C33.1255 31.6053 32.9164 31.4137 32.6771 31.2691C32.4378 31.1245 32.1731 31.0299 31.8981 30.9906C31.6232 30.9513 31.3433 30.9682 31.0747 31.0402C30.8061 31.1122 30.554 31.238 30.3328 31.4103C29.8882 31.7563 29.5953 32.2691 29.518 32.8364C29.4408 33.4038 29.5855 33.9794 29.9206 34.4375L33.6759 39.5533C33.8521 39.7923 34.0746 39.9912 34.3295 40.1374C34.5844 40.2836 34.8661 40.3738 35.1567 40.4024C35.4473 40.4311 35.7405 40.3974 36.0178 40.3036C36.2951 40.2099 36.5504 40.058 36.7676 39.8577L44.9461 32.2685C45.3601 31.8831 45.6082 31.3448 45.6361 30.7717C45.6639 30.1986 45.4691 29.6375 45.0945 29.2117C44.7208 28.785 44.1975 28.528 43.6394 28.4972ZM50.0206 32.2855C49.4612 32.2851 48.9246 32.513 48.5287 32.9189C48.1329 33.3249 47.9104 33.8757 47.91 34.4502C47.9096 34.735 47.964 35.0171 48.0699 35.2803C48.1758 35.5435 48.3312 35.7827 48.5273 35.9841C48.7233 36.1856 48.9561 36.3454 49.2124 36.4543C49.4686 36.5633 49.7433 36.6193 50.0206 36.6191H64.9143C65.1916 36.6193 65.4663 36.5633 65.7225 36.4543C65.9788 36.3454 66.2116 36.1856 66.4076 35.9841C66.6036 35.7827 66.7591 35.5435 66.865 35.2803C66.9709 35.0171 67.0252 34.735 67.0249 34.4502C67.0245 33.8757 66.802 33.3249 66.4061 32.9189C66.0103 32.513 65.4737 32.2851 64.9143 32.2855H50.0206ZM43.6394 45.0834C43.0815 45.0525 42.5344 45.2502 42.1183 45.6331L35.6546 51.6241L33.2925 48.4193C33.1255 48.1915 32.9164 47.9999 32.6771 47.8553C32.4378 47.7107 32.1731 47.6161 31.8981 47.5768C31.6232 47.5375 31.3433 47.5544 31.0747 47.6264C30.8061 47.6984 30.554 47.8242 30.3328 47.9965C29.8882 48.3425 29.5953 48.8553 29.518 49.4227C29.4408 49.99 29.5855 50.5657 29.9206 51.0237L33.6759 56.1268C33.8524 56.3655 34.0752 56.5641 34.3302 56.7099C34.5853 56.8557 34.867 56.9455 35.1576 56.9737C35.4482 57.0019 35.7413 56.9679 36.0185 56.8738C36.2956 56.7797 36.5507 56.6275 36.7676 56.427L44.9461 48.8547C45.3601 48.4693 45.6082 47.931 45.6361 47.3579C45.6639 46.7848 45.4691 46.2237 45.0945 45.7979C44.7208 45.3712 44.1975 45.1142 43.6394 45.0834ZM50.0206 48.8717C49.7436 48.8715 49.4693 48.9273 49.2133 49.036C48.9573 49.1447 48.7247 49.3041 48.5287 49.5051C48.3328 49.7062 48.1772 49.9448 48.0711 50.2076C47.9649 50.4703 47.9102 50.7519 47.91 51.0364C47.9096 51.3212 47.964 51.6033 48.0699 51.8665C48.1758 52.1297 48.3312 52.3689 48.5273 52.5704C48.7233 52.7718 48.9561 52.9316 49.2124 53.0405C49.4686 53.1495 49.7433 53.2055 50.0206 53.2053H64.9143C65.1916 53.2055 65.4663 53.1495 65.7225 53.0405C65.9788 52.9316 66.2116 52.7718 66.4076 52.5704C66.6036 52.3689 66.7591 52.1297 66.865 51.8665C66.9709 51.6033 67.0252 51.3212 67.0249 51.0364C67.0247 50.7519 66.97 50.4703 66.8638 50.2076C66.7576 49.9448 66.6021 49.7062 66.4061 49.5051C66.2102 49.3041 65.9775 49.1447 65.7216 49.036C65.4656 48.9273 65.1913 48.8715 64.9143 48.8717H50.0206ZM43.6353 61.6696C43.0782 61.641 42.5327 61.8402 42.1183 62.2235L35.6546 68.2145L33.2925 64.9928C33.1252 64.7654 32.9159 64.5741 32.6764 64.4299C32.437 64.2857 32.1722 64.1915 31.8973 64.1526C31.6223 64.1137 31.3426 64.131 31.0741 64.2033C30.8056 64.2757 30.5537 64.4017 30.3328 64.5742C30.1109 64.7457 29.9242 64.9605 29.7833 65.2062C29.6424 65.4519 29.5502 65.7238 29.5119 66.0063C29.4736 66.2887 29.49 66.5761 29.5601 66.852C29.6302 67.128 29.7527 67.3869 29.9206 67.6141L33.6759 72.7173C33.8524 72.956 34.0752 73.1546 34.3302 73.3003C34.5853 73.4461 34.867 73.5359 35.1576 73.5642C35.4482 73.5924 35.7413 73.5584 36.0185 73.4642C36.2956 73.3701 36.5507 73.218 36.7676 73.0174L44.9461 65.4325C45.3601 65.0471 45.6082 64.5087 45.6361 63.9356C45.6639 63.3625 45.4691 62.8015 45.0945 62.3757C44.7184 61.9511 44.1936 61.6971 43.6353 61.6696ZM50.0206 65.4452C49.7433 65.445 49.4686 65.501 49.2124 65.61C48.9561 65.7189 48.7233 65.8787 48.5273 66.0802C48.3312 66.2816 48.1758 66.5208 48.0699 66.784C47.964 67.0472 47.9096 67.3293 47.91 67.6141C47.9096 67.8989 47.964 68.181 48.0699 68.4442C48.1758 68.7075 48.3312 68.9466 48.5273 69.1481C48.7233 69.3496 48.9561 69.5093 49.2124 69.6183C49.4686 69.7273 49.7433 69.7832 50.0206 69.7831H64.9143C65.1916 69.7832 65.4663 69.7272 65.7225 69.6183C65.9788 69.5093 66.2116 69.3496 66.4076 69.1481C66.6036 68.9466 66.7591 68.7075 66.865 68.4442C66.9709 68.181 67.0252 67.8989 67.0249 67.6141C67.0252 67.3293 66.9709 67.0472 66.865 66.784C66.7591 66.5208 66.6036 66.2816 66.4076 66.0802C66.2116 65.8787 65.9788 65.7189 65.7225 65.61C65.4663 65.501 65.1916 65.445 64.9143 65.4452H50.0206Z" fill="black"/>
</g>
<defs>
<clipPath id="clip0_82_2">
<rect width="95" height="94" fill="white"/>
</clipPath>
</defs>
</svg>
